<svg xmlns="http://www.w3.org/2000/svg" viewBox="0 0 500 500"><g id="freepik--background-simple--inject-56"><g><path d="M442.877,200.328c-4.997-14.363-15.635-28.213-32.321-40.496-19.667-14.478-50.306-29.27-90.381-24.901-73.985,8.066-75.333,46.761-125.079,39.035-56.348-8.751-122.445-2.882-140.825,36.386-34.911,74.585,169.36,164.747,281.606,139.424,69.879-15.765,133.532-73.185,107.001-149.448Z" style="fill:#407BFF;"></path><path d="M442.877,200.328c-4.997-14.363-15.635-28.213-32.321-40.496-19.667-14.478-50.306-29.27-90.381-24.901-73.985,8.066-75.333,46.761-125.079,39.035-56.348-8.751-122.445-2.882-140.825,36.386-34.911,74.585,169.36,164.747,281.606,139.424,69.879-15.765,133.532-73.185,107.001-149.448Z" style="fill:#fff; opacity:.9;"></path></g></g><g id="freepik--Shadow--inject-56"><path d="M421.841,438.813c0,5.13-76.936,9.289-171.841,9.289s-171.842-4.159-171.842-9.289,76.936-9.289,171.842-9.289,171.841,4.159,171.841,9.289Z" style="fill:#f5f5f5;"></path><path d="M262.027,42.44c-.14,0-.274-.079-.339-.214l-6.493-13.676c-.089-.187-.009-.411,.178-.5,.188-.088,.411-.008,.5,.178l6.493,13.676c.089,.187,.009,.411-.178,.5-.052,.024-.107,.036-.161,.036Z" style="fill:#263238;"></path></g><g id="freepik--Reflection--inject-56"><g><g style="opacity:.3;"><path d="M160.104,438.605c4.925,8.335,17.828,12.272,33.97,12.272,12.998,0,60.028-4.507,62.401,.167-13.455,1.808-49.308,6.334-62.763,8.142-3.017,.405-6.579,1.139-7.423,3.186-.718,1.739,1.119,3.588,3.472,4.37,2.353,.782,5.074,.761,7.683,.724,10.449-.148,20.898-.296,31.348-.443,4.161-.059,9.695,.681,10.029,3.556,.358,3.075-5.639,4.275-10.09,4.217-4.451-.058-10.385,.509-10.988,3.566,.341,1.593,21.507,.731,31.669-1.567,3.955-.894,8.18-2.323,9.607-5.031,1.578-2.994-1.106-6.42-4.96-8.159-3.854-1.739-8.588-2.193-13.15-2.605,11.083-4.134,24.213-4.477,36.799-4.424,12.586,.053,25.537,.368,37.337-2.667s22.308-10.408,22.212-19.129l-177.152,3.824Z" style="fill:#407BFF;"></path></g><ellipse cx="203.012" cy="476.987" rx="7.171" ry="2.048" style="fill:#407BFF; opacity:.3;"></ellipse></g></g><g id="freepik--Boat--inject-56"><g><g><path d="M110.914,393.955s9.696-10.003,21.742-10.971c12.046-.968,63.464-3.872,63.464-3.872l12.086-20.808,95.156,.803,35.552,31.299-228,3.549Z" style="fill:#263238;"></path><path d="M110.914,393.955s9.696-10.003,21.742-10.971c12.046-.968,63.464-3.872,63.464-3.872l12.086-20.808,95.156,.803,35.552,31.299-228,3.549Z" style="fill:#fff; opacity:.6;"></path><polygon points="314.536 378.427 300.135 362.772 242.979 362.26 236.826 378.785 314.536 378.427" style="fill:#407BFF;"></polygon><polygon points="314.536 378.427 300.135 362.772 242.979 362.26 236.826 378.662 314.536 378.427" style="fill:#fff; opacity:.4;"></polygon><polygon points="242.253 364.21 299.147 364.21 311.881 378.439 314.743 378.662 300.135 362.772 242.979 362.26 242.253 364.21" style="opacity:.3;"></polygon><polygon points="301.836 367.213 275.903 378.544 286.935 378.544 304.742 370.461 301.836 367.213" style="fill:#fff; opacity:.4;"></polygon><polygon points="288.432 364.21 250.102 378.785 241.579 378.785 279.952 364.21 288.432 364.21" style="fill:#fff; opacity:.4;"></polygon></g><polygon points="115.41 388.198 114.66 388.198 114.66 368.862 103.263 368.862 103.263 388.198 102.513 388.198 102.513 368.112 115.41 368.112 115.41 388.198" style="fill:#263238;"></polygon><path d="M166.667,368.119v20.476c0,.483,.75,.483,.75,0v-20.476c0-.483-.75-.483-.75,0h0Z" style="fill:#263238;"></path><path d="M217.856,368.119v20.476c0,.483,.75,.483,.75,0v-20.476c0-.483-.75-.483-.75,0h0Z" style="fill:#263238;"></path><path d="M269.044,368.119v20.476c0,.483,.75,.483,.75,0v-20.476c0-.483-.75-.483-.75,0h0Z" style="fill:#263238;"></path><path d="M321.663,365.891v20.476c0,.483,.75,.483,.75,0v-20.476c0-.483-.75-.483-.75,0h0Z" style="fill:#263238;"></path><path d="M372.93,362.426v20.476c0,.483,.75,.483,.75,0v-20.476c0-.483-.75-.483-.75,0h0Z" style="fill:#263238;"></path><path d="M401.518,360.501v20.476c0,.483,.75,.483,.75,0v-20.476c0-.483-.75-.483-.75,0h0Z" style="fill:#263238;"></path><g><rect x="252.233" y="23.178" width="6.231" height="365.416" style="fill:#263238;"></rect><rect x="119.105" y="335.135" width="10.55" height=".75" transform="translate(-232.591 310.83) rotate(-65.704)" style="fill:#263238;"></rect><path d="M245.506,40.059c-.053,0-.108-.011-.159-.036-.188-.088-.268-.312-.18-.499l6.728-14.275c.088-.187,.313-.268,.499-.18,.188,.088,.268,.312,.179,.499l-6.727,14.275c-.064,.136-.199,.215-.34,.215Z" style="fill:#263238;"></path><polygon points="258.647 364.585 253.028 364.585 236.311 344.292 236.89 343.815 253.382 363.835 258.28 363.835 272.019 346.084 272.612 346.543 258.647 364.585" style="fill:#263238;"></polygon><rect x="252.233" y="23.178" width="6.231" height="365.416" style="fill:#fff; opacity:.4;"></rect><g><rect x="117.675" y="338.874" width="134.559" height="5.28" style="fill:#263238;"></rect><rect x="246.458" y="328.016" width=".75" height="13.543" transform="translate(-169.079 329.612) rotate(-52.886)" style="fill:#263238;"></rect><rect x="241.481" y="340.533" width=".75" height="34.378" transform="translate(-167.377 219.925) rotate(-37.328)" style="fill:#263238;"></rect><polygon points="122.211 330.702 243.962 330.702 245.506 38.056 122.211 330.702" style="fill:#407BFF;"></polygon><polygon points="122.211 330.702 243.962 330.702 245.506 38.056 122.211 330.702" style="fill:#fff; opacity:.4;"></polygon><rect x="117.675" y="338.874" width="134.559" height="5.28" style="fill:#fff; opacity:.4;"></rect><path d="M122.211,330.702s149.992-113.728,85.973-93.756c-46.336,14.456,38.65-181.795,38.65-181.795l-2.871,275.55H122.211Z" style="fill:#407BFF; opacity:.3;"></path></g></g><path d="M195.583,374.289c-14.823,0-27.386-3.475-28.56-3.81-33.777,6.208-51.958-1.57-52.139-1.649l.303-.686c.178,.078,18.207,7.771,51.788,1.581l.088-.016,.086,.025c.282,.083,28.367,8.242,50.959,.417l.102-.035,.104,.024c.295,.065,29.799,6.669,50.992-.045l.086-.027,.089,.015c.323,.055,32.47,5.306,52.43-1.949l.083-.03,.088,.011c.421,.048,42.138,4.77,50.985-2.513l.136-.112,.174,.033c.157,.031,15.799,2.952,28.347-3.432l.34,.668c-12.062,6.138-26.891,3.833-28.656,3.531-9.233,7.233-48.632,2.886-51.323,2.579-19.628,7.088-50.728,2.274-52.636,1.969-20.738,6.53-49.226,.488-51.195,.057-7.365,2.533-15.298,3.394-22.669,3.394Z" style="fill:#407BFF;"></path><path d="M195.583,382.061c-14.823,0-27.386-3.475-28.56-3.81-33.777,6.208-51.958-1.569-52.139-1.649l.303-.686c.178,.078,18.207,7.771,51.788,1.581l.088-.016,.086,.025c.282,.084,28.367,8.241,50.959,.417l.102-.035,.104,.024c.295,.066,29.799,6.669,50.992-.045l.086-.027,.089,.015c.323,.055,32.47,5.306,52.43-1.949l.083-.03,.088,.011c.421,.048,42.138,4.771,50.985-2.513l.136-.112,.174,.033c.157,.031,15.799,2.952,28.347-3.432l.34,.668c-12.062,6.138-26.891,3.834-28.656,3.531-9.233,7.233-48.632,2.886-51.323,2.579-19.628,7.089-50.728,2.275-52.636,1.969-20.738,6.53-49.226,.488-51.195,.057-7.365,2.533-15.298,3.394-22.669,3.394Z" style="fill:#407BFF;"></path><polygon points="385.049 382.99 378.123 364.889 378.59 364.711 385.516 382.812 385.049 382.99" style="fill:#263238;"></polygon><path d="M272.316,346.313s72.755,1.47,107.295,19.107c0,0-25.722-226.349-117.584-323.356,0,0,30.866,210.916,10.289,304.248Z" style="fill:#407BFF;"></path><path d="M272.316,346.313s72.755,1.47,107.295,19.107c0,0-25.722-226.349-117.584-323.356,0,0,30.866,210.916,10.289,304.248Z" style="fill:#fff; opacity:.4;"></path><path d="M98.017,387.997s11.494,27.459,19.796,37.357c8.302,9.898,35.122,12.772,44.062,13.091,8.94,.319,173.374,.639,180.079,0s25.224-4.151,36.718-23.308c11.494-19.157,27.778-35.122,27.778-35.122-.307,0-188.841,13.159-308.434,7.982Z" style="fill:#407BFF;"></path><path d="M102.888,398.927l2.505,5.252s244.062-4.09,288.088-9.76l3.835-4.539s-150.146,9.048-294.428,9.046Z" style="fill:#fff;"></path><path d="M98.017,387.997s1.973,4.711,4.871,10.93h0s230.546,.36,294.428-9.046c5.279-6.083,9.135-9.866,9.135-9.866-.307,0-188.841,13.159-308.434,7.982Z" style="fill:#fff; opacity:.4;"></path><g><circle cx="194.513" cy="416.459" r="10.655" transform="translate(-255.596 509.599) rotate(-76.655)" style="opacity:.3;"></circle><circle cx="194.513" cy="416.402" r="8.033" transform="translate(-143.916 105.449) rotate(-22.384)" style="fill:#407BFF;"></circle><circle cx="194.513" cy="416.402" r="8.033" transform="translate(-143.916 105.449) rotate(-22.384)" style="fill:#fff; opacity:.4;"></circle><path d="M199.743,410.309l-12.413,9.684s1.282,2.199,2.484,2.917l12.13-9.561s-.952-2.159-2.201-3.04Z" style="fill:#fff;"></path></g><g><circle cx="252.233" cy="416.61" r="10.655" transform="translate(-223.758 313.566) rotate(-46.592)" style="opacity:.3;"></circle><circle cx="252.233" cy="416.553" r="8.033" transform="translate(-220.67 300.362) rotate(-45)" style="fill:#407BFF;"></circle><circle cx="252.233" cy="416.553" r="8.033" transform="translate(-220.67 300.362) rotate(-45)" style="fill:#fff; opacity:.4;"></circle><path d="M257.463,410.46l-12.413,9.684s1.282,2.199,2.484,2.917l12.13-9.561s-.952-2.159-2.201-3.04Z" style="fill:#fff;"></path></g><g><circle cx="304.28" cy="416.402" r="10.655" transform="translate(-205.319 337.12) rotate(-45)" style="opacity:.3;"></circle><circle cx="304.28" cy="416.346" r="8.033" transform="translate(-170.674 617.215) rotate(-76.764)" style="fill:#407BFF;"></circle><circle cx="304.28" cy="416.346" r="8.033" transform="translate(-170.674 617.215) rotate(-76.764)" style="fill:#fff; opacity:.4;"></circle><path d="M309.51,410.252l-12.413,9.684s1.282,2.199,2.484,2.917l12.13-9.562s-.952-2.159-2.201-3.04Z" style="fill:#fff;"></path></g><path d="M262.835,47.808s14.978,85.057,36.339,185.871c10.978,51.809,39.37,98.302,80.437,131.742h0c-26.776-12.443-64.613-17.413-107.295-19.107,0,0,5.283-28.87,6.079-49.079,.482-12.245,1.18-35.805,.878-57.228-.196-13.934-1.384-27.068-1.379-35.24,.014-22.311-15.058-156.958-15.058-156.958Z" style="fill:#407BFF; opacity:.3;"></path><g><path d="M142.566,380.322v8.299c0,.483,.75,.483,.75,0v-8.299c0-.483-.75-.483-.75,0h0Z" style="fill:#263238;"></path><rect x="141.675" y="388.474" width="2.813" height="1.834" style="fill:#263238;"></rect><circle cx="143.082" cy="397.487" r="7.533" style="fill:#407BFF;"></circle><circle cx="143.082" cy="397.487" r="7.533" style="opacity:.3;"></circle><path d="M137.813,393.384s-2.824,4.724-.197,8.181c2.842,3.741,7.133,2.367,7.133,2.367,0,0-4.373-.899-5.451-3.613-1.485-3.738,.841-6.105,.841-6.105l-2.326-.83Z" style="fill:#fff; opacity:.2;"></path><path d="M137.813,392.104s5.271,2.881,10.536,0c0,0-1.961-2.319-5.268-2.151-3.307,.168-4.916,1.782-5.269,2.151Z" style="fill:#263238;"></path></g><g><path d="M240.632,380.322v8.299c0,.483,.75,.483,.75,0v-8.299c0-.483-.75-.483-.75,0h0Z" style="fill:#263238;"></path><rect x="239.741" y="388.474" width="2.813" height="1.834" style="fill:#263238;"></rect><circle cx="241.147" cy="397.487" r="7.533" style="fill:#407BFF;"></circle><circle cx="241.147" cy="397.487" r="7.533" style="opacity:.3;"></circle><path d="M235.879,393.384s-2.824,4.724-.197,8.181c2.842,3.741,7.133,2.367,7.133,2.367,0,0-4.373-.899-5.451-3.613-1.485-3.738,.841-6.105,.841-6.105l-2.326-.83Z" style="fill:#fff; opacity:.2;"></path><path d="M235.879,392.104s5.271,2.881,10.537,0c0,0-1.961-2.319-5.268-2.151-3.306,.168-4.916,1.782-5.269,2.151Z" style="fill:#263238;"></path></g><g><path d="M347.532,377.818v10.802c0,.483,.75,.483,.75,0v-10.802c0-.483-.75-.483-.75,0h0Z" style="fill:#263238;"></path><rect x="346.641" y="388.474" width="2.813" height="1.834" style="fill:#263238;"></rect><circle cx="348.048" cy="397.487" r="7.533" style="fill:#407BFF;"></circle><circle cx="348.048" cy="397.487" r="7.533" style="opacity:.3;"></circle><path d="M342.779,393.384s-2.824,4.724-.197,8.181c2.842,3.741,7.133,2.367,7.133,2.367,0,0-4.373-.899-5.451-3.613-1.485-3.738,.841-6.105,.841-6.105l-2.326-.83Z" style="fill:#fff; opacity:.2;"></path><path d="M342.779,392.104s5.271,2.881,10.536,0c0,0-1.961-2.319-5.268-2.151-3.307,.168-4.916,1.782-5.269,2.151Z" style="fill:#263238;"></path></g><path d="M149.451,330.702s51.184-1.176,62.795-8.522c11.611-7.346,32.321-49.524,32.321-49.524l-.605,58.046h-94.511" style="fill:#407BFF; opacity:.3;"></path><path d="M135.549,434.485l228.241-3.736s-9.872,7.475-21.836,7.696c-11.964,.221-183.755,.369-183.755,.369,0,0-20.373-3.672-22.649-4.328Z" style="opacity:.3;"></path></g></g><g id="freepik--Sun--inject-56"><g id="freepik--freepik--Sun--inject-5--inject-56"><g><path d="M432.669,83.331c0,2.604-3.766,4.672-4.408,7.07s1.541,6.155,.288,8.322c-1.252,2.167-5.57,2.126-7.358,3.906-1.788,1.78-1.706,6.089-3.906,7.358-2.2,1.269-5.842-.948-8.322-.288-2.48,.659-4.474,4.408-7.07,4.408s-4.672-3.766-7.07-4.408c-2.398-.643-6.147,1.549-8.322,.288-2.175-1.261-2.118-5.57-3.906-7.358s-6.081-1.697-7.358-3.906c-1.277-2.208,.947-5.867,.288-8.339-.659-2.472-4.408-4.466-4.408-7.07s3.766-4.664,4.408-7.062c.643-2.398-1.541-6.155-.288-8.322,1.252-2.167,5.57-2.126,7.358-3.914,1.788-1.788,1.706-6.081,3.906-7.358,2.2-1.277,5.842,.956,8.322,.288,2.48-.667,4.474-4.4,7.07-4.4s4.672,3.766,7.07,4.4c2.398,.634,6.147-1.541,8.322-.288,2.175,1.252,2.118,5.57,3.906,7.358,1.788,1.788,6.081,1.706,7.358,3.914,1.277,2.208-.947,5.842-.288,8.322,.659,2.48,4.408,4.482,4.408,7.078Z" style="fill:#407BFF;"></path><path d="M432.669,83.331c0,2.604-3.766,4.672-4.408,7.07s1.541,6.155,.288,8.322c-1.252,2.167-5.57,2.126-7.358,3.906-1.788,1.78-1.706,6.089-3.906,7.358-2.2,1.269-5.842-.948-8.322-.288-2.48,.659-4.474,4.408-7.07,4.408s-4.672-3.766-7.07-4.408c-2.398-.643-6.147,1.549-8.322,.288-2.175-1.261-2.118-5.57-3.906-7.358s-6.081-1.697-7.358-3.906c-1.277-2.208,.947-5.867,.288-8.339-.659-2.472-4.408-4.466-4.408-7.07s3.766-4.664,4.408-7.062c.643-2.398-1.541-6.155-.288-8.322,1.252-2.167,5.57-2.126,7.358-3.914,1.788-1.788,1.706-6.081,3.906-7.358,2.2-1.277,5.842,.956,8.322,.288,2.48-.667,4.474-4.4,7.07-4.4s4.672,3.766,7.07,4.4c2.398,.634,6.147-1.541,8.322-.288,2.175,1.252,2.118,5.57,3.906,7.358,1.788,1.788,6.081,1.706,7.358,3.914,1.277,2.208-.947,5.842-.288,8.322,.659,2.48,4.408,4.482,4.408,7.078Z" style="fill:#fff;"></path></g><path d="M393.476,63.009c11.221-4.648,24.086,.681,28.734,11.902s-.681,24.086-11.902,28.734c-11.221,4.648-24.086-.681-28.734-11.902-4.648-11.221,.681-24.086,11.902-28.734Z" style="fill:#407BFF;"></path></g></g><g id="freepik--Birds--inject-56"><g><g><path d="M135.288,120.105s.482-6.825,1.756-7.89c1.274-1.066,9.067-3.655,9.067-3.655,0,0-3.083,10.521-4.956,11.734-1.873,1.214-5.866-.189-5.866-.189Z" style="fill:#407BFF;"></path><path d="M146.11,108.56h0c-.096,.324-3.115,10.548-4.956,11.734-1.235,.541-2.562,.653-3.843,.324-.682-.121-1.357-.292-2.023-.513,0,0,.492-6.838,1.756-7.89,1.263-1.052,8.35-3.426,9.024-3.642h0l.043-.014Z" style="fill:#fff; opacity:.6;"></path><path d="M131.317,116.005c1.766,0,5.791,2.428,7.119,2.549,1.327,.121,7.921-5.597,9.334-6.542,1.413-.944,13.841-3.048,13.841-3.048,0,0-8.243,10.628-13.841,10.939,0,0,4.143,1.457,5.352,1.066,3.835-.996,4.574-1.397,8.489-1.352l-4.496,3.065,6.733,1.039c-3.116,.698-6.293,.848-9.442,.445-2.406,1.111-4.88,1.972-7.397,2.576-3.503,1.132-7.225,.172-10.094-2.603-2.419-2.468-10.394-5.26-10.394-5.26l2.719-1.214c.396-.994,1.194-1.632,2.077-1.659Z" style="fill:#407BFF;"></path><path d="M131.317,116.005c1.766,0,5.791,2.428,7.119,2.549,1.327,.121,7.921-5.597,9.334-6.542,1.413-.944,13.841-3.048,13.841-3.048,0,0-8.243,10.628-13.841,10.939,0,0,4.143,1.457,5.352,1.066,3.835-.996,4.574-1.397,8.489-1.352l-4.496,3.065,6.733,1.039c-3.116,.698-6.293,.848-9.442,.445-2.406,1.111-4.88,1.972-7.397,2.576-3.503,1.132-7.225,.172-10.094-2.603-2.419-2.468-10.394-5.26-10.394-5.26l2.719-1.214c.396-.994,1.194-1.632,2.077-1.659Z" style="fill:#fff; opacity:.8;"></path><polygon points="129.186 117.705 129.957 118.406 129.497 120.105 126.521 118.878 129.186 117.705" style="fill:#263238;"></polygon><path d="M132.54,118.453c0,.451-.29,.816-.647,.816s-.647-.365-.647-.816,.29-.816,.647-.816,.647,.365,.647,.816Z" style="fill:#263238;"></path></g><g><path d="M89.037,157.754c1.285-1.078,6.578,6.545,9.079,7.498-1.78,.818-3.709,.851-5.503,.094-2.757-1.296-4.931-6.467-3.575-7.591Z" style="fill:#407BFF;"></path><path d="M98.116,165.252c-1.78,.81-3.706,.849-5.503,.109-2.757-1.296-4.931-6.482-3.575-7.607,.304-.265,.83,0,1.496,.484,2.138,1.671,5.678,6.279,7.583,7.013Z" style="fill:#fff; opacity:.6;"></path><path d="M84.866,156.286c1.297-.391,4.534,.812,5.527,.672,.993-.141,7.011-.687,7.011-.687,1.662-.254,2.852-.323,4.191-.634,2.709-1.489,5.393-2.127,8.276-2.818l-5.293,3.874,5.036-.39c-2.217,1.133-4.541,1.847-6.905,2.124-1.649,1.302-3.372,2.43-5.153,3.374-2.45,1.544-5.297,1.486-7.711-.156-2.056-1.468-8.237-2.171-8.237-2.171l1.87-1.453c.176-.887,.716-1.561,1.39-1.734Z" style="fill:#407BFF;"></path><path d="M84.866,156.286c1.297-.391,4.534,.812,5.527,.672,.993-.141,7.011-.687,7.011-.687,1.662-.254,2.852-.323,4.191-.634,2.709-1.489,5.393-2.127,8.276-2.818l-5.293,3.874,5.036-.39c-2.217,1.133-4.541,1.847-6.905,2.124-1.649,1.302-3.372,2.43-5.153,3.374-2.45,1.544-5.297,1.486-7.711-.156-2.056-1.468-8.237-2.171-8.237-2.171l1.87-1.453c.176-.887,.716-1.561,1.39-1.734Z" style="fill:#fff; opacity:.8;"></path><polygon points="83.44 158.02 84.083 158.41 83.931 159.816 81.571 159.472 83.44 158.02" style="fill:#263238;"></polygon><path d="M91.853,157.02c2.337-1.656,15.82,5.545,21.359,5.873-3.712,1.55-7.605,2.17-11.485,1.828-6.228-.64-12.362-5.967-9.873-7.7Z" style="fill:#407BFF;"></path><ellipse cx="85.205" cy="158.203" rx=".514" ry=".648" style="fill:#263238;"></ellipse></g><path d="M91.853,157.02c2.337-1.656,15.82,5.545,21.359,5.873-3.712,1.55-7.605,2.17-11.485,1.828-6.228-.64-12.362-5.967-9.873-7.7Z" style="fill:#fff; opacity:.8;"></path></g></g></svg>
